<svg width="29" height="24" viewBox="0 0 29 24" fill="none" xmlns="http://www.w3.org/2000/svg">
<path d="M14.2759 7.57895L18.4545 11.5705V11.3684C18.4545 10.3634 18.0379 9.39952 17.2963 8.68886C16.5547 7.97819 15.5488 7.57895 14.5 7.57895H14.2759ZM8.60773 8.58947L10.6509 10.5474C10.585 10.8126 10.5455 11.0779 10.5455 11.3684C10.5455 12.3735 10.9621 13.3373 11.7037 14.048C12.4453 14.7586 13.4512 15.1579 14.5 15.1579C14.79 15.1579 15.08 15.12 15.3568 15.0568L17.4 17.0147C16.5168 17.4316 15.5414 17.6842 14.5 17.6842C12.752 17.6842 11.0756 17.0188 9.83952 15.8344C8.60349 14.6499 7.90909 13.0435 7.90909 11.3684C7.90909 10.3705 8.17273 9.43579 8.60773 8.58947ZM1.31818 1.60421L4.32364 4.48421L4.91682 5.05263C2.74182 6.69474 1.02818 8.8421 0 11.3684C2.28045 16.9137 7.90909 20.8421 14.5 20.8421C16.5432 20.8421 18.4941 20.4632 20.2736 19.7811L20.8405 20.3116L24.6895 24L26.3636 22.3958L2.99227 0M14.5 5.05263C16.248 5.05263 17.9244 5.71804 19.1605 6.90248C20.3965 8.08692 21.0909 9.69337 21.0909 11.3684C21.0909 12.1768 20.9195 12.96 20.6164 13.6674L24.4786 17.3684C26.4559 15.7895 28.0377 13.7179 29 11.3684C26.7195 5.82316 21.0909 1.89474 14.5 1.89474C12.6545 1.89474 10.8882 2.21053 9.22727 2.77895L12.0877 5.49474C12.8391 5.21684 13.6432 5.05263 14.5 5.05263Z" fill="#E5677A"/>
</svg>
