<svg width="34" height="23" viewBox="0 0 34 23" fill="none" xmlns="http://www.w3.org/2000/svg">
<path d="M17 6.9C15.7704 6.9 14.5911 7.38464 13.7216 8.24731C12.8521 9.10998 12.3636 10.28 12.3636 11.5C12.3636 12.72 12.8521 13.89 13.7216 14.7527C14.5911 15.6154 15.7704 16.1 17 16.1C18.2296 16.1 19.4089 15.6154 20.2784 14.7527C21.1479 13.89 21.6364 12.72 21.6364 11.5C21.6364 10.28 21.1479 9.10998 20.2784 8.24731C19.4089 7.38464 18.2296 6.9 17 6.9ZM17 19.1667C14.9506 19.1667 12.9851 18.3589 11.536 16.9212C10.0868 15.4834 9.27273 13.5333 9.27273 11.5C9.27273 9.46667 10.0868 7.51663 11.536 6.07885C12.9851 4.64107 14.9506 3.83333 17 3.83333C19.0494 3.83333 21.0149 4.64107 22.464 6.07885C23.9132 7.51663 24.7273 9.46667 24.7273 11.5C24.7273 13.5333 23.9132 15.4834 22.464 16.9212C21.0149 18.3589 19.0494 19.1667 17 19.1667ZM17 0C9.27273 0 2.67364 4.76867 0 11.5C2.67364 18.2313 9.27273 23 17 23C24.7273 23 31.3264 18.2313 34 11.5C31.3264 4.76867 24.7273 0 17 0Z" fill="#E5677A"/>
</svg>
